<?xml version="1.0" standalone="no"?>
<!DOCTYPE svg PUBLIC "-//W3C//DTD SVG 20010904//EN"
 "http://www.w3.org/TR/2001/REC-SVG-20010904/DTD/svg10.dtd">
<svg version="1.0" xmlns="http://www.w3.org/2000/svg"
 width="64.000000pt" height="64.000000pt" viewBox="0 0 64.000000 64.000000"
 preserveAspectRatio="xMidYMid meet">

<g transform="translate(0.000000,64.000000) scale(0.100000,-0.100000)"
fill="#000000" stroke="none">
<path d="M42 518 c-17 -17 -17 -379 0 -396 15 -15 148 -16 148 -2 0 6 -22 10
-50 10 -43 0 -50 3 -50 20 0 17 7 20 50 20 28 0 50 5 50 10 0 7 -22 10 -57 8
-55 -3 -58 -4 -61 -31 -2 -15 -8 -27 -13 -27 -5 0 -9 79 -9 190 l0 190 70 0
c40 0 70 4 70 10 0 14 -133 13 -148 -2z"/>
<path d="M222 518 c-17 -17 -17 -279 0 -296 7 -7 39 -12 75 -12 53 0 63 -3 63
-18 0 -9 -9 -23 -20 -30 -11 -7 -20 -21 -20 -32 0 -18 7 -20 90 -20 83 0 90 2
90 20 0 11 -9 25 -20 32 -11 7 -20 21 -20 30 0 15 10 18 63 18 36 0 68 5 75
12 17 17 17 279 0 296 -17 17 -359 17 -376 0z m368 -148 l0 -140 -180 0 -180
0 0 140 0 140 180 0 180 0 0 -140z m-150 -180 c0 -16 -7 -20 -30 -20 -23 0
-30 4 -30 20 0 16 7 20 30 20 23 0 30 -4 30 -20z m40 -50 c0 -6 -30 -10 -70
-10 -40 0 -70 4 -70 10 0 6 30 10 70 10 40 0 70 -4 70 -10z"/>
<path d="M254 477 c-2 -7 -3 -60 -2 -118 l3 -104 155 0 155 0 0 115 0 115
-153 3 c-120 2 -154 0 -158 -11z m296 -107 l0 -100 -140 0 -140 0 0 100 0 100
140 0 140 0 0 -100z"/>
<path d="M74 456 c-3 -8 -4 -25 -2 -38 3 -21 9 -23 61 -26 l57 -3 0 41 0 40
-55 0 c-39 0 -57 -4 -61 -14z m96 -26 c0 -17 -7 -20 -40 -20 -33 0 -40 3 -40
20 0 17 7 20 40 20 33 0 40 -3 40 -20z"/>
<path d="M70 360 c0 -5 11 -10 25 -10 14 0 25 5 25 10 0 6 -11 10 -25 10 -14
0 -25 -4 -25 -10z"/>
<path d="M140 360 c0 -5 11 -10 25 -10 14 0 25 5 25 10 0 6 -11 10 -25 10 -14
0 -25 -4 -25 -10z"/>
<path d="M70 320 c0 -5 11 -10 25 -10 14 0 25 5 25 10 0 6 -11 10 -25 10 -14
0 -25 -4 -25 -10z"/>
<path d="M140 320 c0 -5 11 -10 25 -10 14 0 25 5 25 10 0 6 -11 10 -25 10 -14
0 -25 -4 -25 -10z"/>
<path d="M70 280 c0 -6 27 -10 60 -10 33 0 60 4 60 10 0 6 -27 10 -60 10 -33
0 -60 -4 -60 -10z"/>
</g>
</svg>
